<svg id="Objects" xmlns="http://www.w3.org/2000/svg" viewBox="0 0 495.77 211.67"><title>Logo marinasi</title><path d="M417.55,422h4.63s3.75,69.59,3.9,70.22,1.94,12-5.91,12-5.91-12.34-5.91-12.34Z" transform="translate(-177.87 -292.61)" style="fill:#81b214"/><path d="M435.69,415.34a15.5,15.5,0,0,1-31,0c0-8.33,3.49-26,15.49-26S435.69,407,435.69,415.34Z" transform="translate(-177.87 -292.61)" style="fill:#81b214"/><path d="M254,493.69a8.35,8.35,0,0,1-8.22,8.16,8.49,8.49,0,0,1-8.47-8.16V449.12l-13.59,29a8.65,8.65,0,0,1-15.61,0l-13.59-29v44.57a8.51,8.51,0,0,1-8.58,8.16,8.17,8.17,0,0,1-8.11-8.16V416.74a8.35,8.35,0,0,1,8.58-8.55c3.82,0,6.8,1.68,8.35,5.05L216,459l21.21-45.86c1.67-3.76,4.89-4.92,8.23-4.92a8.5,8.5,0,0,1,8.58,8.55Z" transform="translate(-177.87 -292.61)" style="fill:#f58634"/><path d="M280.39,495.76a9,9,0,0,1-7.87,6.09,8.29,8.29,0,0,1-8.59-8.29,11.54,11.54,0,0,1,.36-2.85L287.54,417c1.55-5.06,3.93-8.81,9.65-8.81s8.11,3.62,9.78,8.81l23.24,73.71a11.54,11.54,0,0,1,.36,2.85c0,4.92-3.69,8.29-8.58,8.29a9.21,9.21,0,0,1-8.11-6.09l-4.17-13.08H284.32Zm18.95-50a88.2,88.2,0,0,1-2.15-12.69,86.84,86.84,0,0,1-2.14,12.69l-6.32,22.16h16.69Z" transform="translate(-177.87 -292.61)" style="fill:#f58634"/><path d="M383.26,461.69l16.33,26.68c3.93,6.48-1.91,13.35-7.27,13.35a8,8,0,0,1-7-4l-20-34.07h-8.11V493.3a8.73,8.73,0,0,1-8.46,8.55,8.52,8.52,0,0,1-8.23-8.55V418.68a9.34,9.34,0,0,1,9.06-9.33h20.74c22.42,0,29.57,13.86,29.57,27.47C399.83,449.64,393.51,458.06,383.26,461.69Zm-13.47-35.88H357.15v21.5H370.5c8.23,0,12.64-3.76,12.64-10.49C383.14,431.38,380.63,425.81,369.79,425.81Z" transform="translate(-177.87 -292.61)" style="fill:#f58634"/><path d="M488.76,497.31,461.1,445v48.45a8.61,8.61,0,0,1-8.46,8.42,8.34,8.34,0,0,1-8.23-8.42V417a8.52,8.52,0,0,1,8.7-8.81,9.73,9.73,0,0,1,8.11,4.79c10.61,19.95,16.69,31.74,27.66,52.6v-49a8.61,8.61,0,0,1,8.46-8.42,8.32,8.32,0,0,1,8.22,8.42V493a8.63,8.63,0,0,1-8.82,8.81A9.56,9.56,0,0,1,488.76,497.31Z" transform="translate(-177.87 -292.61)" style="fill:#f58634"/><path d="M532,495.76a9,9,0,0,1-7.87,6.09,8.28,8.28,0,0,1-8.58-8.29,12,12,0,0,1,.35-2.85L539.18,417c1.55-5.06,3.93-8.81,9.66-8.81s8.1,3.62,9.77,8.81l23.25,73.71a12,12,0,0,1,.35,2.85c0,4.92-3.69,8.29-8.58,8.29a9.2,9.2,0,0,1-8.1-6.09l-4.18-13.08H536Zm19-50a86.84,86.84,0,0,1-2.14-12.69,88.2,88.2,0,0,1-2.15,12.69l-6.32,22.16h16.69Z" transform="translate(-177.87 -292.61)" style="fill:#f58634"/><path d="M623.58,465.45c-2.51-1.17-5.49-2.34-8.7-3.5-11.69-3.89-24.32-8.16-24.32-26.95,0-16.71,10.73-26.81,27.65-26.81,7,0,24,1.94,24,11.66a8,8,0,0,1-8.34,8.16c-2.15,0-3.82-.78-5.84-1.43a22.23,22.23,0,0,0-9.06-1.94c-5.84,0-11.33,2.2-11.33,9.84,0,5.7,3,7.65,5,8.68a43.23,43.23,0,0,0,8.58,3.5c11.69,4,24.44,8.42,24.44,26.82,0,18-12.63,28.37-29.68,28.37-8.82,0-25.51-3.37-25.51-12.44,0-4.14,3.46-8.16,7.87-8.16a16.93,16.93,0,0,1,6,1.55,32.15,32.15,0,0,0,11.8,2.6c8.22,0,12.4-4,12.4-11.15C628.47,468.43,625.72,466.48,623.58,465.45Z" transform="translate(-177.87 -292.61)" style="fill:#f58634"/><path d="M657,416.48a8.35,8.35,0,0,1,16.69,0v77.08a8.35,8.35,0,0,1-16.69,0Z" transform="translate(-177.87 -292.61)" style="fill:#f58634"/><path d="M444.33,345.27c0,13.55-24.55,30.2-24.55,30.2s-24.54-16.65-24.54-30.2,24.54-52.66,24.54-52.66S444.33,331.71,444.33,345.27Z" transform="translate(-177.87 -292.61)" style="fill:#81b214"/><path d="M361.37,394.67c9.58,9.58,38.71,4,38.71,4s5.58-29.12-4-38.71-54.58-19.88-54.58-19.88S351.78,385.09,361.37,394.67Z" transform="translate(-177.87 -292.61)" style="fill:#81b214"/><path d="M444.32,360c-9.58,9.59-4,38.71-4,38.71s29.13,5.58,38.71-4,19.88-54.59,19.88-54.59S453.91,350.38,444.32,360Z" transform="translate(-177.87 -292.61)" style="fill:#81b214"/></svg>